HIERARCHY
ROOT Pelvis
{
	OFFSET 0.000000 0.941512 0.000000
	CHANNELS 6 Xposition Yposition Zposition Zrotation Yrotation Xrotation 
	JOINT Pelvis_L_Hip
	{
		OFFSET 0.000000 0.000000 0.000000
		CHANNELS 3 Zrotation Yrotation Xrotation
		JOINT L_Hip
		{
			OFFSET 0.062321 -0.080322 -0.016990
			CHANNELS 3 Zrotation Yrotation Xrotation
			JOINT L_Knee
			{
				OFFSET 0.093051 -0.381305 -0.029784
				CHANNELS 3 Zrotation Yrotation Xrotation
				JOINT L_Ankle
				{
					OFFSET -0.010371 -0.431000 -0.033614
					CHANNELS 3 Zrotation Yrotation Xrotation
					End Site #name: L_Foot
					{
						OFFSET 0.069299 -0.038670 0.119418
					}
				}
			}
		}
	}
	JOINT Pelvis_R_Hip
	{
		OFFSET 0.000000 0.000000 0.000000
		CHANNELS 3 Zrotation Yrotation Xrotation
		JOINT R_Hip
		{
			OFFSET -0.055334 -0.094904 -0.002373
			CHANNELS 3 Zrotation Yrotation Xrotation
			JOINT R_Knee
			{
				OFFSET -0.064207 -0.384370 -0.019592
				CHANNELS 3 Zrotation Yrotation Xrotation
				JOINT R_Ankle
				{
					OFFSET 0.025418 -0.419734 -0.065953
					CHANNELS 3 Zrotation Yrotation Xrotation
					End Site #name: R_Foot
					{
						OFFSET -0.057233 -0.039888 0.132134
					}
				}
			}
		}
	}
	JOINT Pelvis_Spine1
	{
		OFFSET 0.000000 0.000000 0.000000
		CHANNELS 3 Zrotation Yrotation Xrotation
		JOINT Spine1
		{
			OFFSET -0.005562 0.124093 -0.043360
			CHANNELS 3 Zrotation Yrotation Xrotation
			JOINT Spine2
			{
				OFFSET 0.012244 0.139499 0.029894
				CHANNELS 3 Zrotation Yrotation Xrotation
				JOINT Spine3
				{
					OFFSET -0.002556 0.056561 0.009225
					CHANNELS 3 Zrotation Yrotation Xrotation
					JOINT Spine3_Neck
					{
						OFFSET 0.000000 0.000000 0.000000
						CHANNELS 3 Zrotation Yrotation Xrotation
						JOINT Neck
						{
							OFFSET -0.005205 0.217920 -0.024551
							CHANNELS 3 Zrotation Yrotation Xrotation
							End Site #name: Head
							{
								OFFSET 0.002365 0.091850 0.046637
							}
						}
					}
					JOINT Spine3_L_Collar
					{
						OFFSET 0.000000 0.000000 0.000000
						CHANNELS 3 Zrotation Yrotation Xrotation
						JOINT L_Collar
						{
							OFFSET 0.072225 0.116603 -0.009480
							CHANNELS 3 Zrotation Yrotation Xrotation
							JOINT L_Shoulder
							{
								OFFSET 0.115937 -0.058643 -0.021018
								CHANNELS 3 Zrotation Yrotation Xrotation
								JOINT L_Elbow
								{
									OFFSET 0.021994 -0.254722 -0.024492
									CHANNELS 3 Zrotation Yrotation Xrotation
									End Site #name: L_Wrist
									{
										OFFSET 0.048810 -0.240214 0.103329
									}
								}
							}
						}
					}
					JOINT Spine3_R_Collar
					{
						OFFSET 0.000000 0.000000 0.000000
						CHANNELS 3 Zrotation Yrotation Xrotation
						JOINT R_Collar
						{
							OFFSET -0.073372 0.120704 -0.024611
							CHANNELS 3 Zrotation Yrotation Xrotation
							JOINT R_Shoulder
							{
								OFFSET -0.108089 -0.054969 -0.020504
								CHANNELS 3 Zrotation Yrotation Xrotation
								JOINT R_Elbow
								{
									OFFSET -0.033684 -0.260739 0.009889
									CHANNELS 3 Zrotation Yrotation Xrotation
									End Site #name: R_Wrist
									{
										OFFSET -0.067980 -0.232763 0.118463
									}
								}
							}
						}
					}
				}
			}
		}
	}
}
MOTION
Frames: 7
Frame Time: 0.041667
-0.341363 0.952363 1.078797 -2.890236 -27.004787 1.967560 0.000000 0.000000 0.000000 -2.446447 -2.051985 -8.432633 4.423891 -0.827937 13.239856 -6.065307 -23.724249 -1.731958 0.000000 0.000000 0.000000 -7.901819 3.322141 -20.617928 26.004346 -5.188301 28.340205 -9.536027 -31.488744 9.969204 0.000000 0.000000 0.000000 12.414454 -2.434693 -0.178952 -5.037702 0.360081 -6.701997 -2.602150 -10.195383 13.145136 0.000000 0.000000 0.000000 2.322978 -1.227265 -0.290209 0.000000 0.000000 0.000000 20.724611 -9.082929 -6.886676 -12.988490 0.335125 -7.374312 -5.692534 -3.306354 -3.209814 0.000000 0.000000 0.000000 -21.173946 -2.439045 11.339785 17.636248 1.113731 -2.446711 4.371549 9.234313 -18.675005 
-0.365152 0.948783 1.104173 -3.154936 -27.826154 2.461662 0.000000 0.000000 0.000000 -1.578219 -1.405100 -5.772159 4.233717 -0.777343 12.232406 -5.068140 -23.674629 -3.420139 0.000000 0.000000 0.000000 -9.000592 3.581684 -22.458611 21.950171 -3.364154 17.168425 -11.421547 -35.095705 11.481381 0.000000 0.000000 0.000000 13.150428 -2.532838 -0.313536 -5.588757 0.419197 -6.853984 -2.408826 -10.910808 13.035818 0.000000 0.000000 0.000000 2.294347 -1.218913 -0.511355 0.000000 0.000000 0.000000 21.551365 -9.895839 -7.851370 -12.875674 -0.093695 -9.497205 -5.067286 -3.325932 -4.431953 0.000000 0.000000 0.000000 -21.144829 -2.615689 11.715884 17.841817 1.256761 -2.887963 4.246641 9.117431 -18.607716 
-0.391583 0.942802 1.129328 -3.191456 -28.695892 2.894340 0.000000 0.000000 0.000000 -0.984407 -0.748723 -3.084270 4.385432 -0.795439 11.243970 -4.008841 -23.496175 -5.201734 0.000000 0.000000 0.000000 -9.467296 3.724148 -23.294145 16.319695 -1.833479 5.972568 -11.873316 -36.599335 14.140518 0.000000 0.000000 0.000000 13.703882 -2.550711 -0.706048 -6.102199 0.479723 -6.933266 -2.199806 -11.532100 12.962766 0.000000 0.000000 0.000000 2.179854 -1.157261 -0.540735 0.000000 0.000000 0.000000 22.120683 -10.388401 -8.555926 -13.160845 -0.422331 -11.240211 -4.336852 -3.301051 -5.735979 0.000000 0.000000 0.000000 -21.190024 -2.650996 12.023806 17.997037 1.356458 -3.198720 3.966157 8.554924 -17.743686 
-0.420963 0.934748 1.154668 -2.785674 -29.470826 3.076696 0.000000 0.000000 0.000000 -0.586715 -0.047724 -0.310678 4.520453 -0.809187 10.341331 -3.090440 -23.468549 -6.837453 0.000000 0.000000 0.000000 -9.473363 3.843950 -23.784537 9.944862 -0.936507 -2.944773 -13.472344 -39.543705 17.560882 0.000000 0.000000 0.000000 13.940305 -2.483965 -1.264957 -6.677787 0.542963 -7.106971 -2.081854 -12.154063 12.996976 0.000000 0.000000 0.000000 2.209444 -1.162162 -0.495829 0.000000 0.000000 0.000000 22.449592 -10.742211 -9.116418 -13.656512 -0.602758 -12.260896 -4.026197 -3.417157 -6.812893 0.000000 0.000000 0.000000 -21.147816 -2.975278 12.505596 18.004506 1.423248 -3.426417 3.617652 7.790865 -16.473130 
-0.453179 0.926039 1.179603 -2.104864 -29.886630 3.187560 0.000000 0.000000 0.000000 -0.203117 0.481941 1.735798 4.705095 -0.842816 10.690125 -2.298413 -23.785109 -8.380632 0.000000 0.000000 0.000000 -9.465909 3.989628 -24.496669 4.868690 -0.616417 -7.722251 -16.296820 -43.208638 20.554585 0.000000 0.000000 0.000000 13.939562 -2.346219 -2.049617 -7.128284 0.586397 -7.340856 -2.170444 -12.852559 13.109269 0.000000 0.000000 0.000000 2.507932 -1.311372 -0.623985 0.000000 0.000000 0.000000 22.440183 -11.271207 -9.725339 -14.243957 -0.605384 -12.456632 -4.223300 -3.629454 -7.251180 0.000000 0.000000 0.000000 -20.855440 -3.727927 13.145392 17.726599 1.472001 -3.611887 3.182473 6.881703 -14.926804 
-0.490068 0.919082 1.204977 -1.811975 -29.752355 3.295124 0.000000 0.000000 0.000000 0.835741 0.846219 3.328860 5.231253 -0.956933 12.356817 -1.895685 -24.726263 -9.415053 0.000000 0.000000 0.000000 -9.294046 4.005943 -24.532967 4.030079 -0.587013 -7.994035 -16.319333 -43.240878 20.625153 0.000000 0.000000 0.000000 14.119308 -2.194241 -3.058749 -7.149624 0.586565 -7.379026 -2.547821 -13.619685 13.237533 0.000000 0.000000 0.000000 3.100832 -1.595123 -0.668035 0.000000 0.000000 0.000000 22.101273 -12.183466 -10.503695 -15.263559 -0.365738 -11.651426 -4.529258 -3.667352 -6.785821 0.000000 0.000000 0.000000 -20.561592 -4.826676 13.972732 17.349523 1.419462 -3.474717 2.766727 6.037801 -13.438407 
-0.532630 0.916128 1.229233 -1.917553 -29.615136 3.725258 0.000000 0.000000 0.000000 2.232543 0.933546 4.042228 6.518816 -1.239206 15.495384 -2.035367 -25.752272 -9.514514 0.000000 0.000000 0.000000 -8.755875 4.032704 -24.404969 6.142611 -0.688477 -5.574906 -15.345412 -42.634267 23.825869 0.000000 0.000000 0.000000 14.380627 -1.934612 -4.656325 -6.891189 0.566273 -7.219895 -3.071007 -14.294216 13.493443 0.000000 0.000000 0.000000 3.800812 -1.919842 -0.624870 0.000000 0.000000 0.000000 21.093275 -12.966638 -11.004069 -16.451505 0.109226 -10.104280 -4.711704 -3.329044 -5.116104 0.000000 0.000000 0.000000 -20.230337 -5.941771 14.772925 16.910480 1.310588 -3.148799 2.591227 5.228554 -11.530273 
